<?xml version="1.0" encoding="utf-8"?>
<!-- Generator: Adobe Illustrator 16.0.0, SVG Export Plug-In . SVG Version: 6.00 Build 0)  -->
<!DOCTYPE svg PUBLIC "-//W3C//DTD SVG 1.1//EN" "http://www.w3.org/Graphics/SVG/1.1/DTD/svg11.dtd">
<svg version="1.1" id="Layer_1" xmlns="http://www.w3.org/2000/svg" xmlns:xlink="http://www.w3.org/1999/xlink" x="0px" y="0px"
	 width="80px" height="80px" viewBox="0 0 80 80" enable-background="new 0 0 80 80" xml:space="preserve">
<path fill="#393939" d="M70.433,9.504H66.54V5.006c0-2.066-1.67-3.736-3.734-3.736H62.21c-2.062,0-3.734,1.67-3.734,3.736v4.498
	H44.028V5.006c0-2.066-1.668-3.736-3.73-3.736h-0.6c-2.062,0-3.732,1.67-3.732,3.736v4.498H21.427V5.006
	c0-2.066-1.674-3.736-3.732-3.736h-0.596c-2.064,0-3.738,1.67-3.738,3.736v4.498H9.565c-4.242,0-7.691,3.449-7.691,7.693v53.84
	c0,4.244,3.449,7.693,7.691,7.693h60.867c4.24,0,7.693-3.449,7.693-7.693v-53.84C78.126,12.953,74.673,9.504,70.433,9.504z
	 M69.427,70.037H10.571V36.256h58.855V70.037z"/>
</svg>
