<?xml version="1.0" encoding="utf-8"?>
<!-- Generator: Adobe Illustrator 16.0.0, SVG Export Plug-In . SVG Version: 6.00 Build 0)  -->
<!DOCTYPE svg PUBLIC "-//W3C//DTD SVG 1.1//EN" "http://www.w3.org/Graphics/SVG/1.1/DTD/svg11.dtd">
<svg version="1.1" id="Layer_1" xmlns="http://www.w3.org/2000/svg" xmlns:xlink="http://www.w3.org/1999/xlink" x="0px" y="0px"
	 width="80px" height="80px" viewBox="0 0 80 80" enable-background="new 0 0 80 80" xml:space="preserve">
<path fill="#33A7B0" d="M39.999,0.599C18.24,0.599,0.6,18.24,0.6,39.999S18.24,79.4,39.999,79.4
	C61.762,79.4,79.4,61.758,79.4,39.999S61.762,0.599,39.999,0.599z M37.128,53.141c0,0.668-0.591,1.211-1.329,1.211H15.874
	c-0.738,0-1.338-0.543-1.338-1.211v-9.08c0-0.668,0.602-1.201,1.338-1.201H35.8c0.74,0,1.329,0.533,1.329,1.201L37.128,53.141
	L37.128,53.141z M30.03,37.142c-0.729,0-1.34-0.543-1.34-1.211v-9.08c0-0.666,0.607-1.201,1.34-1.201h19.927
	c0.744,0,1.344,0.535,1.344,1.201h-0.004v9.08c0,0.668-0.596,1.211-1.344,1.211H30.03z M65.459,44.066v9.082
	c0,0.658-0.594,1.201-1.342,1.201H44.199c-0.746,0-1.346-0.543-1.346-1.201v-9.082c0-0.666,0.6-1.209,1.346-1.209h19.926
	c0.74,0,1.34,0.543,1.34,1.209H65.459z"/>
</svg>
