<?xml version="1.0" encoding="utf-8"?>
<!-- Generator: Adobe Illustrator 16.0.0, SVG Export Plug-In . SVG Version: 6.00 Build 0)  -->
<!DOCTYPE svg PUBLIC "-//W3C//DTD SVG 1.1//EN" "http://www.w3.org/Graphics/SVG/1.1/DTD/svg11.dtd">
<svg version="1.1" id="Layer_1" xmlns="http://www.w3.org/2000/svg" xmlns:xlink="http://www.w3.org/1999/xlink" x="0px" y="0px"
	 width="80px" height="80px" viewBox="0 0 80 80" enable-background="new 0 0 80 80" xml:space="preserve">
<g>
	<g>
		<g>
			<g>
				<g>
					<path fill="#33A7B0" d="M39.999,0.599C18.24,0.599,0.6,18.24,0.6,39.999S18.24,79.4,39.999,79.4
						C61.762,79.4,79.4,61.758,79.4,39.999S61.761,0.599,39.999,0.599z M58.212,58.604H21.788V21.396h36.425L58.212,58.604
						L58.212,58.604z"/>
				</g>
			</g>
			<g>
				<rect x="26.224" y="29.798" fill="#33A7B0" width="18.342" height="3.978"/>
			</g>
			<g>
				<polygon fill="#33A7B0" points="50.21,43.13 51.846,41.496 51.843,41.496 54.839,38.5 53.206,36.867 50.21,39.861 
					48.374,38.023 46.74,39.658 48.578,41.496 				"/>
			</g>
			<g>
				<rect x="26.224" y="38.086" fill="#33A7B0" width="18.342" height="3.977"/>
			</g>
			<g>
				<rect x="26.224" y="46.128" fill="#33A7B0" width="18.342" height="3.978"/>
			</g>
			<g>
				<polygon fill="#33A7B0" points="50.21,34.53 51.846,32.896 51.843,32.896 54.839,29.901 53.206,28.268 50.21,31.262 
					48.374,29.424 46.74,31.058 48.578,32.896 				"/>
			</g>
		</g>
	</g>
</g>
</svg>
