<?xml version="1.0" encoding="utf-8"?>
<!-- Generator: Adobe Illustrator 16.0.0, SVG Export Plug-In . SVG Version: 6.00 Build 0)  -->
<!DOCTYPE svg PUBLIC "-//W3C//DTD SVG 1.1//EN" "http://www.w3.org/Graphics/SVG/1.1/DTD/svg11.dtd">
<svg version="1.1" id="Layer_1" xmlns="http://www.w3.org/2000/svg" xmlns:xlink="http://www.w3.org/1999/xlink" x="0px" y="0px"
	 width="25px" height="25px" viewBox="0 0 25 25" enable-background="new 0 0 25 25" xml:space="preserve">
<path id="White_12_" fill="#FCFCF2" d="M22.938,0.769H2.063c-0.714,0-1.295,0.58-1.295,1.295v20.873
	c0,0.715,0.581,1.295,1.295,1.295h11.24v-9.086h-3.06v-3.543h3.06V8.993c0-3.031,1.85-4.682,4.553-4.682
	c1.295,0,2.408,0.096,2.732,0.141V7.62h-1.875c-1.471,0-1.754,0.697-1.754,1.723v2.26h3.506l-0.457,3.543h-3.049v9.086h5.979
	c0.715,0,1.294-0.58,1.294-1.295V2.063C24.232,1.349,23.653,0.769,22.938,0.769z"/>
</svg>
