<?xml version="1.0" encoding="utf-8"?>
<!-- Generator: Adobe Illustrator 16.0.0, SVG Export Plug-In . SVG Version: 6.00 Build 0)  -->
<!DOCTYPE svg PUBLIC "-//W3C//DTD SVG 1.1//EN" "http://www.w3.org/Graphics/SVG/1.1/DTD/svg11.dtd">
<svg version="1.1" id="Layer_1" xmlns="http://www.w3.org/2000/svg" xmlns:xlink="http://www.w3.org/1999/xlink" x="0px" y="0px"
	 width="80px" height="80px" viewBox="0 0 80 80" enable-background="new 0 0 80 80" xml:space="preserve">
<path fill="#33A7B0" d="M39.999,0.599c-21.759,0-39.399,17.641-39.399,39.4c0,21.761,17.641,39.402,39.399,39.402
	c21.763,0,39.402-17.642,39.402-39.402C79.4,18.239,61.762,0.599,39.999,0.599z M20.184,59.781l4.898-10.91l-0.017-0.024
	l5.979,5.988l0.004-0.002l0.021,0.025l-0.024-0.023L20.184,59.781z M31.897,54.027l-6.011-6.009L50.707,23.2l6.008,6.006
	L31.897,54.027z M58.902,27.158l-6.01-5.999c0,0,2.951-2.24,5.557,0.193C61.229,24.368,58.902,27.158,58.902,27.158z"/>
</svg>
