<?xml version="1.0" encoding="utf-8"?>
<!-- Generator: Adobe Illustrator 16.0.0, SVG Export Plug-In . SVG Version: 6.00 Build 0)  -->
<!DOCTYPE svg PUBLIC "-//W3C//DTD SVG 1.1//EN" "http://www.w3.org/Graphics/SVG/1.1/DTD/svg11.dtd">
<svg version="1.1" id="Layer_1" xmlns="http://www.w3.org/2000/svg" xmlns:xlink="http://www.w3.org/1999/xlink" x="0px" y="0px"
	 width="57px" height="25px" viewBox="0 0 57 25" enable-background="new 0 0 57 25" xml:space="preserve">
<g id="YouTube_logo_dark_color_12_">
	<g>
		<g>
			<path id="u_8_" fill="#FCFCF2" d="M21.438,19.689h-2.111v-1.225c-0.801,0.918-1.48,1.383-2.221,1.383
				c-0.648,0-1.1-0.307-1.326-0.861c-0.137-0.336-0.234-0.858-0.234-1.633V8.46h2.113v8.338c0,0.474,0,0.668,0,0.777
				c0.049,0.312,0.182,0.428,0.451,0.428c0.402,0,0.77-0.353,1.217-0.981V8.46h2.111V19.689z"/>
			<path id="o_9_" fill="#FCFCF2" d="M13.99,12.13c0-1.201-0.242-2.104-0.668-2.67c-0.564-0.768-1.447-1.082-2.336-1.082
				c-1.006,0-1.773,0.314-2.334,1.082c-0.433,0.566-0.665,1.479-0.665,2.678l-0.002,3.994c0,1.193,0.206,2.019,0.64,2.58
				c0.562,0.767,1.474,1.17,2.362,1.17c0.889,0,1.816-0.403,2.381-1.17c0.426-0.562,0.623-1.387,0.623-2.58L13.99,12.13L13.99,12.13
				z M11.875,16.354c0.113,1.112-0.232,1.664-0.889,1.664c-0.655,0-1-0.552-0.888-1.664v-4.445
				c-0.111-1.113,0.233-1.635,0.888-1.635c0.656,0,1.002,0.521,0.891,1.635L11.875,16.354z"/>
			<path id="y_9_" fill="#FCFCF2" d="M5.649,13.573v6.116H3.426v-6.116c0,0-2.305-7.496-2.78-8.896h2.336l1.561,5.857l1.552-5.857
				H8.43L5.649,13.573z"/>
			<g>
				<path fill="#FCFCF2" d="M43.166,10.245c-0.332,0-0.711,0.174-1.047,0.508l-0.004,6.742c0.338,0.338,0.719,0.508,1.051,0.508
					c0.58,0,0.844-0.428,0.844-1.539v-4.779C44.01,10.571,43.746,10.245,43.166,10.245z"/>
				<path fill="#FCFCF2" d="M51.457,11.583c0-1.029-0.264-1.338-0.932-1.338c-0.672,0-0.957,0.285-0.957,1.322v1.23l1.889-0.002
					V11.583z"/>
				<path fill="#FCFCF2" d="M56.021,5.892c0,0-0.324-2.277-1.32-3.279c-1.262-1.316-2.678-1.324-3.326-1.4
					C46.73,0.876,39.76,0.876,39.76,0.876h-0.014c0,0-6.969,0-11.615,0.336c-0.648,0.076-2.064,0.084-3.326,1.4
					c-0.996,1.002-1.32,3.279-1.32,3.279s-0.332,2.674-0.332,5.35v2.508c0,2.674,0.332,5.351,0.332,5.351s0.324,2.276,1.32,3.278
					c1.262,1.315,2.92,1.274,3.66,1.412c2.656,0.256,11.287,0.334,11.287,0.334s6.979-0.013,11.623-0.347
					c0.648-0.075,2.064-0.084,3.326-1.399c0.996-1.002,1.32-3.278,1.32-3.278s0.332-2.677,0.332-5.351v-2.508
					C56.354,8.565,56.021,5.892,56.021,5.892z M30.445,19.689H28.22V6.903h-2.336V4.794l7.007-0.004v2.113h-2.445V19.689z
					 M38.449,19.689h-2.111v-1.225c-0.801,0.918-1.48,1.383-2.221,1.383c-0.648,0-1.102-0.307-1.326-0.861
					c-0.137-0.336-0.234-0.858-0.234-1.633V8.571h2.113v8.227c0,0.474,0,0.668,0,0.777c0.049,0.312,0.182,0.428,0.449,0.428
					c0.404,0,0.771-0.353,1.219-0.981V8.571h2.111V19.689z M46.121,16.354c0,1.028-0.088,1.754-0.223,2.225
					c-0.269,0.826-0.854,1.256-1.654,1.256c-0.717,0-1.449-0.432-2.121-1.264l-0.004,1.121h-2.002V4.79h2.002l-0.004,4.857
					c0.652-0.799,1.387-1.256,2.129-1.256c0.801,0,1.34,0.465,1.607,1.297c0.135,0.445,0.27,1.166,0.27,2.219V16.354z
					 M50.545,18.003c0.494,0,0.783-0.271,0.898-0.81c0.02-0.108,0.014-0.59,0.014-1.396h2.113v0.313c0,0.648-0.053,1.107-0.07,1.312
					c-0.068,0.445-0.227,0.851-0.471,1.205c-0.557,0.808-1.383,1.205-2.437,1.205c-1.053,0-1.854-0.379-2.436-1.14
					c-0.429-0.557-0.701-1.383-0.701-2.562v-3.893c0-1.188,0.248-2.105,0.676-2.668c0.582-0.76,1.386-1.162,2.412-1.162
					c1.011,0,1.812,0.402,2.375,1.162c0.42,0.562,0.656,1.432,0.656,2.619v2.273h-4.009v1.996
					C49.561,17.484,49.854,18.003,50.545,18.003z"/>
			</g>
		</g>
	</g>
</g>
</svg>
