<?xml version="1.0" encoding="utf-8"?>
<!-- Generator: Adobe Illustrator 16.0.0, SVG Export Plug-In . SVG Version: 6.00 Build 0)  -->
<!DOCTYPE svg PUBLIC "-//W3C//DTD SVG 1.1//EN" "http://www.w3.org/Graphics/SVG/1.1/DTD/svg11.dtd">
<svg version="1.1" id="Layer_1" xmlns="http://www.w3.org/2000/svg" xmlns:xlink="http://www.w3.org/1999/xlink" x="0px" y="0px"
	 width="21px" height="21px" viewBox="0 0 21 21" enable-background="new 0 0 21 21" xml:space="preserve">
<g>
	<g>
		<path fill="#33A7B0" d="M1.24,17.164c-0.715,0.718-0.715,1.879,0,2.596c0.359,0.358,0.83,0.537,1.299,0.537
			c0.471,0,0.939-0.179,1.299-0.537l6.023-6.026L7.267,11.14L1.24,17.164z"/>
		<polygon fill="#33A7B0" points="16.3,5.997 18.921,4.641 20.296,1.984 19.015,0.703 16.361,2.078 15.003,4.699 11.808,7.896 
			13.105,9.192 		"/>
		<path fill="#33A7B0" d="M16.875,12.962l-0.248-0.024c-0.447,0-0.871,0.093-1.27,0.238L7.824,5.643
			C7.97,5.247,8.062,4.821,8.062,4.375L8.039,4.126C7.908,2.217,6.335,0.703,4.392,0.703c-0.564,0-1.094,0.138-1.572,0.367
			l2.438,2.438c0.129,0.129,0.217,0.279,0.275,0.44c0.16,0.434,0.074,0.94-0.275,1.289C5.019,5.478,4.707,5.598,4.392,5.598
			c-0.145,0-0.287-0.033-0.426-0.085c-0.16-0.06-0.309-0.146-0.439-0.275L1.089,2.801C0.861,3.278,0.722,3.81,0.722,4.375
			c0,1.941,1.512,3.516,3.424,3.644l0.246,0.026c0.449,0,0.873-0.093,1.27-0.239l7.533,7.533c-0.146,0.396-0.238,0.822-0.238,1.269
			l0.025,0.248c0.129,1.908,1.701,3.424,3.645,3.424c0.564,0,1.096-0.139,1.574-0.367l-2.439-2.439
			c-0.127-0.128-0.217-0.281-0.275-0.439c-0.16-0.434-0.074-0.94,0.275-1.29c0.238-0.238,0.553-0.358,0.865-0.358
			c0.145,0,0.287,0.03,0.424,0.083c0.16,0.06,0.314,0.146,0.441,0.275l2.438,2.438c0.23-0.479,0.367-1.008,0.367-1.573
			C20.296,14.665,18.783,13.092,16.875,12.962z"/>
	</g>
</g>
</svg>
